<svg xmlns="http://www.w3.org/2000/svg" width="48" height="48" viewBox="0 0 48 48">
  <g id="Componente_45_1" data-name="Componente 45 – 1" transform="translate(0 0)">
    <g id="Grupo_16183" data-name="Grupo 16183" transform="translate(13024 5426)">
      <g id="Grupo_15849" data-name="Grupo 15849" transform="translate(-13048 -7012)">
        <g id="Grupo_15839" data-name="Grupo 15839" transform="translate(-61 730)">
          <g id="Grupo_15836" data-name="Grupo 15836" transform="translate(40 -175.354)">
            <rect id="Rectángulo_235" data-name="Rectángulo 235" width="48" height="48" transform="translate(45 1031.354)" fill="none"/>
          </g>
        </g>
      </g>
      <g id="streamline-icon-car-actions-check-1_50x50" data-name="streamline-icon-car-actions-check-1@50x50" transform="translate(-13015.559 -5418.125)">
        <path id="Trazado_3433" data-name="Trazado 3433" d="M6.148,9.879l2.2-4.914a2.835,2.835,0,0,1,2.659-1.84h11.2a2.838,2.838,0,0,1,2.659,1.84l2.206,4.916" transform="translate(-1.813 0)" fill="none" stroke="#026d31" stroke-linecap="round" stroke-linejoin="round" stroke-width="2.5"/>
        <path id="Trazado_3434" data-name="Trazado 3434" d="M3.125,27.708v2.143a1.891,1.891,0,0,0,3.782,0V27.96" transform="translate(-0.619 -9.708)" fill="none" stroke="#026d31" stroke-linecap="round" stroke-linejoin="round" stroke-width="2.5"/>
        <path id="Trazado_3435" data-name="Trazado 3435" d="M8.285,20.312a.473.473,0,0,0-.473.473" transform="translate(-2.47 -6.788)" fill="none" stroke="#026d31" stroke-linecap="round" stroke-linejoin="round" stroke-width="2.5"/>
        <path id="Trazado_3436" data-name="Trazado 3436" d="M9.066,20.785a.473.473,0,0,0-.473-.473" transform="translate(-2.778 -6.788)" fill="none" stroke="#026d31" stroke-linecap="round" stroke-linejoin="round" stroke-width="2.5"/>
        <path id="Trazado_3437" data-name="Trazado 3437" d="M8.594,21.566a.473.473,0,0,0,.473-.473" transform="translate(-2.778 -7.096)" fill="none" stroke="#026d31" stroke-linecap="round" stroke-linejoin="round" stroke-width="2.5"/>
        <path id="Trazado_3438" data-name="Trazado 3438" d="M7.812,21.094a.473.473,0,0,0,.473.473" transform="translate(-2.47 -7.096)" fill="none" stroke="#026d31" stroke-linecap="round" stroke-linejoin="round" stroke-width="2.5"/>
        <path id="Trazado_3439" data-name="Trazado 3439" d="M27.526,15.953a3.782,3.782,0,0,0-3.278-1.891H5.34a3.782,3.782,0,0,0-3.782,3.782v2.836a1.891,1.891,0,0,0,1.891,1.891h7.563" transform="translate(0 -4.319)" fill="none" stroke="#026d31" stroke-linecap="round" stroke-linejoin="round" stroke-width="2.5"/>
        <path id="Trazado_3440" data-name="Trazado 3440" d="M23.437,29.438A7.563,7.563,0,1,0,31,21.875,7.563,7.563,0,0,0,23.437,29.438Z" transform="translate(-8.641 -7.405)" fill="none" stroke="#026d31" stroke-linecap="round" stroke-linejoin="round" stroke-width="2.5"/>
        <path id="Trazado_3441" data-name="Trazado 3441" d="M36.954,30.74l-3.662,4.883a.947.947,0,0,1-1.426.1l-1.891-1.891" transform="translate(-11.222 -10.906)" fill="none" stroke="#d4001b" stroke-linecap="round" stroke-linejoin="round" stroke-width="2.5"/>
      </g>
    </g>
  </g>
</svg>
