<svg xmlns="http://www.w3.org/2000/svg" viewBox="0 0 212.72 131.34"><g id="Layer_2" data-name="Layer 2"><g id="Capa_1" data-name="Capa 1"><path d="M0,126.81l2.94-3.49a12.79,12.79,0,0,0,8.76,3.61c3,0,4.92-1.42,4.92-3.49v-.08c0-2-1.11-3-6.27-4.24-5.91-1.43-9.24-3.17-9.24-8.29v-.08c0-4.76,4-8,9.48-8a15.36,15.36,0,0,1,10.07,3.49l-2.61,3.69A12.59,12.59,0,0,0,10.51,107C7.66,107,6,108.49,6,110.32v.07c0,2.15,1.27,3.1,6.62,4.37,5.87,1.43,8.89,3.53,8.89,8.13V123c0,5.19-4.09,8.29-9.92,8.29A17.09,17.09,0,0,1,0,126.81ZM30.07,103.1H50.65v4.36H35v7.22H48.87V119H35v7.46h15.9v4.36H30.07Zm27.57,14V117A14.14,14.14,0,0,1,72,102.62a15,15,0,0,1,10.67,3.77l-3.09,3.69a10.89,10.89,0,0,0-7.78-3c-5.11,0-9,4.48-9,9.8V117c0,5.71,3.77,9.91,9.44,9.91a11.3,11.3,0,0,0,6.7-2.1V119.6H71.8v-4.25H83.62V127A17.7,17.7,0,0,1,72,131.34C63.35,131.34,57.64,125.15,57.64,117.06Zm34.89,2v-16h4.88v15.78c0,5.16,2.66,7.9,7,7.9s7-2.58,7-7.7v-16h4.88v15.74c0,8.29-4.68,12.46-11.94,12.46S92.53,127.13,92.53,119.08Zm33.6-16H138.5c3.5,0,6.23,1,8,2.77a8.43,8.43,0,0,1,2.3,6v.08c0,4.56-2.74,7.3-6.59,8.41l7.5,10.51h-5.79l-6.82-9.68H131v9.68h-4.88Zm12,13.76c3.49,0,5.71-1.82,5.71-4.64v-.08c0-3-2.14-4.6-5.75-4.6H131v9.32Zm17.75.2V117a14.52,14.52,0,0,1,29-.08V117a14.52,14.52,0,0,1-29,.08Zm23.92,0V117c0-5.4-3.93-9.88-9.44-9.88s-9.36,4.4-9.36,9.8V117c0,5.39,3.93,9.83,9.44,9.83S179.82,122.45,179.82,117.06Zm11.41,9.75,2.93-3.49a12.81,12.81,0,0,0,8.77,3.61c3,0,4.91-1.42,4.91-3.49v-.08c0-2-1.11-3-6.26-4.24-5.91-1.43-9.24-3.17-9.24-8.29v-.08c0-4.76,4-8,9.47-8a15.41,15.41,0,0,1,10.08,3.49l-2.62,3.69a12.59,12.59,0,0,0-7.53-2.86c-2.86,0-4.53,1.47-4.53,3.3v.07c0,2.15,1.27,3.1,6.63,4.37,5.87,1.43,8.88,3.53,8.88,8.13V123c0,5.19-4.08,8.29-9.91,8.29A17.07,17.07,0,0,1,191.23,126.81Z" fill="#6c6f70"/><path d="M95.37,84.11h31.24c34,0,51.07-17.66,51.07-42.53v-.25C177.68,16.46,161,0,127.57,0H95.37Zm28.11-23V23h4.69c12.86,0,21.15,5.74,21.15,18.91v.26c0,13.16-8.29,18.9-21.15,18.9Z" fill="#006729"/><path id="path34" d="M184.69,84.11h28V0h-28Z" fill="#006729"/><path id="path34-2" data-name="path34" d="M28.06,56.07h28V28h-28Z" fill="#e60018"/><path id="path34-3" data-name="path34" d="M56.11,84.11h28V0h-28Z" fill="#006729"/><path id="path34-4" data-name="path34" d="M0,84.11H28V0H0Z" fill="#006729"/></g></g></svg>